<svg width="58" height="58" viewBox="0 0 58 58" fill="none" xmlns="http://www.w3.org/2000/svg">
<g filter="url(#filter0_d)">
<path fill-rule="evenodd" clip-rule="evenodd" d="M37.3333 44.4444V33.3333H48.4444L48.4472 44.4444H37.3333ZM48.4444 27.7778H37.3333C34.2694 27.7778 31.7778 30.2694 31.7778 33.3333V44.4444C31.7778 47.5083 34.2694 50 37.3333 50H48.4444C51.5083 50 54 47.5083 54 44.4444V33.3333C54 30.2694 51.5083 27.7778 48.4444 27.7778ZM9.55556 44.4444V33.3333H20.6667L20.6694 44.4444H9.55556ZM20.6667 27.7778H9.55556C6.49167 27.7778 4 30.2694 4 33.3333V44.4444C4 47.5083 6.49167 50 9.55556 50H20.6667C23.7306 50 26.2222 47.5083 26.2222 44.4444V33.3333C26.2222 30.2694 23.7306 27.7778 20.6667 27.7778ZM37.3333 16.6667V5.55556H48.4444L48.4472 16.6667H37.3333ZM48.4444 0H37.3333C34.2694 0 31.7778 2.49167 31.7778 5.55556V16.6667C31.7778 19.7306 34.2694 22.2222 37.3333 22.2222H48.4444C51.5083 22.2222 54 19.7306 54 16.6667V5.55556C54 2.49167 51.5083 0 48.4444 0ZM9.55556 16.6667V5.55556H20.6667L20.6694 16.6667H9.55556ZM20.6667 0H9.55556C6.49167 0 4 2.49167 4 5.55556V16.6667C4 19.7306 6.49167 22.2222 9.55556 22.2222H20.6667C23.7306 22.2222 26.2222 19.7306 26.2222 16.6667V5.55556C26.2222 2.49167 23.7306 0 20.6667 0Z" fill="#9DC208"/>
</g>
<defs>
<filter id="filter0_d" x="0" y="0" width="58" height="58" filterUnits="userSpaceOnUse" color-interpolation-filters="sRGB">
<feFlood flood-opacity="0" result="BackgroundImageFix"/>
<feColorMatrix in="SourceAlpha" type="matrix" values="0 0 0 0 0 0 0 0 0 0 0 0 0 0 0 0 0 0 127 0"/>
<feOffset dy="4"/>
<feGaussianBlur stdDeviation="2"/>
<feColorMatrix type="matrix" values="0 0 0 0 1 0 0 0 0 1 0 0 0 0 1 0 0 0 1 0"/>
<feBlend mode="normal" in2="BackgroundImageFix" result="effect1_dropShadow"/>
<feBlend mode="normal" in="SourceGraphic" in2="effect1_dropShadow" result="shape"/>
</filter>
</defs>
</svg>
