<svg width="58" height="53" viewBox="0 0 58 53" fill="none" xmlns="http://www.w3.org/2000/svg">
<g filter="url(#filter0_d)">
<path fill-rule="evenodd" clip-rule="evenodd" d="M29 0C35.4525 0 41.1375 4.1525 43.1875 10.1125C49.285 10.94 54 16.18 54 22.5C54 25.5525 52.89 28.49 50.875 30.7725C50.38 31.33 49.6925 31.6175 49 31.6175C48.4125 31.6175 47.8225 31.4125 47.345 30.9925C46.3125 30.075 46.2125 28.4975 47.1275 27.46C48.335 26.095 49 24.33 49 22.5C49 18.365 45.635 15 41.5 15H41.25C40.06 15 39.035 14.16 38.8 12.9925C37.865 8.3625 33.745 5 29 5C24.2575 5 20.135 8.3625 19.2025 12.9925C18.9675 14.16 17.94 15 16.75 15H16.5C12.365 15 9 18.365 9 22.5C9 24.33 9.665 26.095 10.875 27.46C11.7875 28.4975 11.69 30.075 10.655 30.9925C9.62 31.9075 8.04 31.805 7.1275 30.7725C5.11 28.49 4 25.5525 4 22.5C4 16.18 8.715 10.94 14.8125 10.1125C16.865 4.1525 22.55 0 29 0ZM27.2629 20.7C28.2479 19.76 29.8054 19.7675 30.7679 20.7325L38.2679 28.2325C39.2454 29.21 39.2454 30.79 38.2679 31.7675C37.7804 32.255 37.1404 32.5 36.5004 32.5C35.8604 32.5 35.2204 32.255 34.7329 31.7675L31.5004 28.535V42.5C31.5004 43.8825 30.3804 45 29.0004 45C27.6204 45 26.5004 43.8825 26.5004 42.5V28.39L23.2379 31.54C22.2454 32.5025 20.6629 32.47 19.7029 31.4775C18.7429 30.4825 18.7704 28.9025 19.7629 27.9425L27.2629 20.7Z" fill="#FF3D00"/>
</g>
<defs>
<filter id="filter0_d" x="0" y="0" width="58" height="53" filterUnits="userSpaceOnUse" color-interpolation-filters="sRGB">
<feFlood flood-opacity="0" result="BackgroundImageFix"/>
<feColorMatrix in="SourceAlpha" type="matrix" values="0 0 0 0 0 0 0 0 0 0 0 0 0 0 0 0 0 0 127 0"/>
<feOffset dy="4"/>
<feGaussianBlur stdDeviation="2"/>
<feColorMatrix type="matrix" values="0 0 0 0 1 0 0 0 0 1 0 0 0 0 1 0 0 0 1 0"/>
<feBlend mode="normal" in2="BackgroundImageFix" result="effect1_dropShadow"/>
<feBlend mode="normal" in="SourceGraphic" in2="effect1_dropShadow" result="shape"/>
</filter>
</defs>
</svg>
